<svg width="21" height="21" viewBox="0 0 21 21" fill="none" xmlns="http://www.w3.org/2000/svg">
<g clip-path="url(#clip0_2_11998)">
<path d="M10.3882 20.371C11.749 20.371 13.0299 20.1106 14.231 19.5897C15.4322 19.0689 16.4918 18.3495 17.4097 17.4315C18.3277 16.5136 19.0471 15.454 19.5679 14.2528C20.0888 13.0517 20.3492 11.7708 20.3492 10.4101C20.3492 9.04939 20.0888 7.76846 19.5679 6.56729C19.0471 5.36612 18.3277 4.30655 17.4097 3.38858C16.4918 2.47061 15.4306 1.75121 14.2261 1.23038C13.0217 0.709544 11.7392 0.449127 10.3785 0.449127C9.0178 0.449127 7.73688 0.709544 6.53571 1.23038C5.33453 1.75121 4.27659 2.47061 3.36188 3.38858C2.44716 4.30655 1.72939 5.36612 1.20856 6.56729C0.687724 7.76846 0.427307 9.04939 0.427307 10.4101C0.427307 11.7708 0.687724 13.0517 1.20856 14.2528C1.72939 15.454 2.44879 16.5136 3.36676 17.4315C4.28473 18.3495 5.3443 19.0689 6.54547 19.5897C7.74664 20.1106 9.02757 20.371 10.3882 20.371Z" fill="inherit" fill-opacity="0.85"/>
<path d="M10.4078 15.4393C10.1864 15.4393 10.0041 15.3694 9.8609 15.2294C9.71767 15.0894 9.64606 14.9055 9.64606 14.6776V9.66788L9.72418 7.52921L8.71833 8.74015L7.52692 9.94132C7.37718 10.0911 7.19814 10.1659 6.98981 10.1659C6.78147 10.1659 6.60732 10.0959 6.46735 9.95597C6.32737 9.81599 6.25739 9.64184 6.25739 9.43351C6.25739 9.21866 6.32575 9.04288 6.46247 8.90616L9.82184 5.56632C10.0106 5.371 10.2059 5.27335 10.4078 5.27335C10.6096 5.27335 10.8049 5.371 10.9937 5.56632L14.3531 8.90616C14.4898 9.04939 14.5582 9.22517 14.5582 9.43351C14.5582 9.64184 14.4866 9.81599 14.3433 9.95597C14.2001 10.0959 14.0243 10.1659 13.816 10.1659C13.5946 10.1659 13.4156 10.0911 13.2789 9.94132L12.0972 8.74015L11.0816 7.51944L11.1597 9.66788V14.6776C11.1597 14.9055 11.0897 15.0894 10.9498 15.2294C10.8098 15.3694 10.6291 15.4393 10.4078 15.4393Z" fill="white"/>
</g>
<defs>
<clipPath id="clip0_2_11998">
<rect width="19.9219" height="19.9316" fill="white" transform="translate(0.427307 0.449127)"/>
</clipPath>
</defs>
</svg>
