<svg width="119" height="119" viewBox="0 0 119 119" fill="none" xmlns="http://www.w3.org/2000/svg">
<mask id="mask0_20_8" style="mask-type:luminance" maskUnits="userSpaceOnUse" x="0" y="0" width="119" height="119">
<path d="M118.157 0.651978H0.523132V118.343H118.157V0.651978Z" fill="white"/>
</mask>
<g mask="url(#mask0_20_8)">
<path d="M59.3398 118.286C67.375 118.286 74.9384 116.748 82.0307 113.673C89.1235 110.597 95.3801 106.349 100.8 100.929C106.221 95.5089 110.469 89.2522 113.544 82.1594C116.62 75.0672 118.157 67.5038 118.157 59.4691C118.157 51.4345 116.62 43.8709 113.544 36.7783C110.469 29.6856 106.221 23.4291 100.8 18.0087C95.3801 12.5884 89.114 8.34047 82.0017 5.26509C74.89 2.18968 67.3172 0.651978 59.2826 0.651978C51.248 0.651978 43.6844 2.18968 36.5918 5.26509C29.4991 8.34047 23.2522 12.5884 17.8511 18.0087C12.4499 23.4291 8.21162 29.6856 5.13625 36.7783C2.06083 43.8709 0.523132 51.4345 0.523132 59.4691C0.523132 67.5038 2.06083 75.0672 5.13625 82.1594C8.21162 89.2522 12.4595 95.5089 17.8799 100.929C23.3003 106.349 29.5568 110.597 36.6494 113.673C43.7421 116.748 51.3056 118.286 59.3398 118.286Z"  fill-opacity="0.85"/>
<path d="M59.4555 89.1653C58.1482 89.1653 57.0718 88.7526 56.2262 87.9259C55.3805 87.0993 54.9577 86.0134 54.9577 84.6677V55.0865L55.4189 42.4581L49.4796 49.6084L42.4446 56.7011C41.5605 57.5855 40.5033 58.0272 39.2731 58.0272C38.0429 58.0272 37.0146 57.6138 36.1881 56.7876C35.3616 55.961 34.9484 54.9327 34.9484 53.7026C34.9484 52.4339 35.352 51.396 36.1593 50.5887L55.9956 30.8677C57.1102 29.7144 58.2634 29.1378 59.4555 29.1378C60.6471 29.1378 61.8003 29.7144 62.9151 30.8677L82.7516 50.5887C83.5588 51.4344 83.9627 52.4724 83.9627 53.7026C83.9627 54.9327 83.5399 55.961 82.6937 56.7876C81.8482 57.6138 80.8101 58.0272 79.5802 58.0272C78.2728 58.0272 77.2159 57.5855 76.4087 56.7011L69.4311 49.6084L63.4342 42.4004L63.8953 55.0865V84.6677C63.8953 86.0134 63.482 87.0993 62.6559 87.9259C61.8293 88.7526 60.7623 89.1653 59.4555 89.1653Z" fill="white"/>
</g>
</svg>
