<svg width="50" height="50" viewBox="0 0 50 50" fill="none" xmlns="http://www.w3.org/2000/svg">
<g clip-path="url(#clip0_160_8)">
<path d="M25 49.9757C28.4151 49.9757 31.6299 49.3223 34.6445 48.0157C37.6593 46.7092 40.3186 44.9046 42.6224 42.6017C44.9264 40.299 46.732 37.641 48.0391 34.6277C49.3464 31.6145 50 28.4012 50 24.9878C50 21.5744 49.3464 18.3611 48.0391 15.3479C46.732 12.3347 44.9264 9.67665 42.6224 7.37384C40.3186 5.07105 37.6552 3.26638 34.6322 1.95983C31.6094 0.653276 28.3905 0 24.9755 0C21.5604 0 18.3456 0.653276 15.3309 1.95983C12.3162 3.26638 9.66093 5.07105 7.36519 7.37384C5.06944 9.67665 3.26797 12.3347 1.96078 15.3479C0.653594 18.3611 0 21.5744 0 24.9878C0 28.4012 0.653594 31.6145 1.96078 34.6277C3.26797 37.641 5.07352 40.299 7.37743 42.6017C9.68136 44.9046 12.3407 46.7092 15.3554 48.0157C18.3701 49.3223 21.5849 49.9757 25 49.9757Z" fill="#FF9500"/>
<path d="M18.5784 40.1521C18.219 40.1521 17.9003 40.0214 17.6226 39.76C17.3448 39.4987 17.2059 39.1803 17.2059 38.8047C17.2059 38.4453 17.3448 38.1268 17.6226 37.8492C17.9003 37.5716 18.219 37.4328 18.5784 37.4328H23.652V34.8848C21.969 34.7052 20.4984 34.1826 19.2402 33.3169C17.982 32.4515 17.0016 31.3368 16.299 29.973C15.5964 28.6093 15.2451 27.0701 15.2451 25.3552V22.097C15.2451 21.7541 15.3799 21.4479 15.6495 21.1784C15.9191 20.9089 16.2337 20.7742 16.5932 20.7742C16.9526 20.7742 17.2631 20.9089 17.5245 21.1784C17.786 21.4479 17.9167 21.7541 17.9167 22.097V25.3552C17.9167 26.7271 18.219 27.9438 18.8235 29.0054C19.4281 30.0671 20.2614 30.9 21.3235 31.5042C22.3856 32.1085 23.6111 32.4106 25 32.4106C26.3889 32.4106 27.6185 32.1085 28.6888 31.5042C29.759 30.9 30.5963 30.0671 31.2009 29.0054C31.8056 27.9438 32.1079 26.7271 32.1079 25.3552V22.097C32.1079 21.7541 32.2386 21.4479 32.4999 21.1784C32.7615 20.9089 33.0719 20.7742 33.4313 20.7742C33.7909 20.7742 34.1055 20.9089 34.375 21.1784C34.6446 21.4479 34.7793 21.7541 34.7793 22.097V25.3552C34.7793 27.0701 34.4281 28.6093 33.7255 29.973C33.0229 31.3368 32.0425 32.4475 30.7842 33.3049C29.5262 34.1623 28.0638 34.689 26.3971 34.8848V37.4328H31.4461C31.8219 37.4328 32.1446 37.5716 32.4141 37.8492C32.6838 38.1268 32.8187 38.4453 32.8187 38.8047C32.8187 39.1639 32.6798 39.4783 32.4021 39.7477C32.1241 40.0173 31.8055 40.1521 31.4461 40.1521H18.5784ZM25 29.8629C23.7582 29.8629 22.7492 29.4342 21.973 28.5767C21.1969 27.7193 20.8088 26.6455 20.8088 25.3552V14.5272C20.8088 13.2533 21.1969 12.1958 21.973 11.3547C22.7492 10.5137 23.7582 10.0931 25 10.0931C26.2418 10.0931 27.2508 10.5137 28.027 11.3547C28.8032 12.1958 29.1913 13.2533 29.1913 14.5272V25.3552C29.1913 26.6455 28.8032 27.7193 28.027 28.5767C27.2508 29.4342 26.2418 29.8629 25 29.8629Z" fill="white"/>
</g>
<defs>
<clipPath id="clip0_160_8">
<rect width="50" height="50" fill="white"/>
</clipPath>
</defs>
</svg>
