<svg width="32" height="32" viewBox="0 0 32 32" fill="none" xmlns="http://www.w3.org/2000/svg">
<g clip-path="url(#clip0_161_2)">
<path d="M0.628522 31.3759C0.901127 31.6479 1.22184 31.8319 1.59065 31.928C1.95947 32.024 2.3323 32.024 2.70914 31.928C3.08597 31.8319 3.41068 31.6479 3.68328 31.3759L15.9985 19.0607L28.3379 31.3759C28.6105 31.6479 28.9312 31.8319 29.3 31.928C29.6688 32.024 30.0376 32.024 30.4064 31.928C30.7752 31.8319 31.0959 31.6479 31.3685 31.3759C31.6571 31.1038 31.8456 30.7797 31.9337 30.4036C32.0221 30.0275 32.0221 29.6554 31.9337 29.2874C31.8456 28.9193 31.6571 28.5991 31.3685 28.3269L19.0533 16.012L31.3685 3.72091C31.6571 3.44885 31.8456 3.12878 31.9337 2.76069C32.0221 2.39259 32.0221 2.02049 31.9337 1.6444C31.8456 1.26831 31.6571 0.944227 31.3685 0.67216C31.0959 0.400092 30.7752 0.216046 30.4064 0.120022C30.0376 0.0239982 29.6688 0.0239982 29.3 0.120022C28.9312 0.216046 28.6105 0.400092 28.3379 0.67216L15.9985 12.9872L3.68328 0.67216C3.41068 0.400092 3.08597 0.216046 2.70914 0.120022C2.3323 0.0239982 1.95947 0.0239982 1.59065 0.120022C1.22184 0.216046 0.901127 0.400092 0.628522 0.67216C0.339883 0.944227 0.151466 1.26831 0.0632705 1.6444C-0.0249248 2.02049 -0.0209158 2.39259 0.0752973 2.76069C0.17151 3.12878 0.355919 3.44885 0.628522 3.72091L12.9679 16.012L0.628522 28.3269C0.355919 28.5991 0.17151 28.9193 0.0752973 29.2874C-0.0209158 29.6554 -0.0249248 30.0275 0.0632705 30.4036C0.151466 30.7797 0.339883 31.1038 0.628522 31.3759Z" fill-opacity="0.85"/>
</g>
<defs>
<clipPath id="clip0_161_2">
<rect width="32" height="32" fill="transparent"/>
</clipPath>
</defs>
</svg>
