<svg width="82" height="110" viewBox="0 0 82 110" fill="none" xmlns="http://www.w3.org/2000/svg">
<g clip-path="url(#clip0_164_18)">
<path d="M8.93933 110H24.2639C27.1764 110 29.3945 109.235 30.918 107.704C32.4414 106.173 33.2032 103.922 33.2032 100.951V8.98098C33.2032 5.91979 32.4414 3.65767 30.918 2.1946C29.3945 0.731533 27.1764 0 24.2639 0H8.93933C5.98195 0 3.75272 0.765295 2.25163 2.29589C0.750543 3.82648 0 6.05484 0 8.98098V100.951C0 103.922 0.750543 106.173 2.25163 107.704C3.75272 109.235 5.98195 110 8.93933 110ZM57.8031 110H73.0602C76.0179 110 78.2471 109.235 79.748 107.704C81.2493 106.173 82 103.922 82 100.951V8.98098C82 5.91979 81.2493 3.65767 79.748 2.1946C78.2471 0.731533 76.0179 0 73.0602 0H57.8031C54.8458 0 52.6053 0.765295 51.0818 2.29589C49.5583 3.82648 48.7965 6.05484 48.7965 8.98098V100.951C48.7965 103.922 49.5583 106.173 51.0818 107.704C52.6053 109.235 54.8458 110 57.8031 110Z" fill-opacity="0.85"/>
</g>
<defs>
<clipPath id="clip0_164_18">
<rect width="82" height="110" />
</clipPath>
</defs>
</svg>
