<svg width="272" height="272" viewBox="0 0 272 272" fill="none" xmlns="http://www.w3.org/2000/svg">
<path d="M176.777 0C203.927 0 217.803 0 232.283 4.525C248.272 10.2567 260.942 22.9267 266.673 38.915C271.5 53.6967 271.5 67.2717 271.5 94.7233V176.777C271.5 203.927 271.5 217.803 266.975 232.283C261.243 248.272 248.573 260.942 232.585 266.673C217.803 271.5 204.228 271.5 176.777 271.5H94.7233C67.5733 271.5 53.6967 271.5 39.2167 266.975C23.2283 260.942 10.5583 248.272 4.525 232.283C0 217.803 0 204.228 0 176.777V94.7233C0 67.5733 0 53.6967 4.525 39.2167C10.5583 23.2283 23.2283 10.5583 39.2167 4.525C53.6967 0 67.2717 0 94.7233 0H176.777Z" fill="white"/>
<path d="M98.6198 103.45C101.005 103.45 103.125 103.715 105.245 104.245C104.715 102.125 104.45 99.7401 104.45 97.6201V63.7001C104.45 62.1101 104.715 60.7851 104.715 59.4601C92.2598 50.1851 74.5048 51.2451 63.3748 62.3751C52.2448 73.5051 51.1848 91.2601 60.4598 103.715C61.7848 103.45 63.3748 103.45 64.6998 103.45H98.6198Z" fill="#FF7E7B"/>
<path d="M134.13 129.155C132.54 129.155 131.215 128.89 129.625 128.625C129.89 129.95 130.155 131.54 130.155 133.13C130.95 132.6 131.48 132.07 132.275 131.275C132.805 130.48 133.335 129.95 134.13 129.155Z" fill="#FF6F3F"/>
<path d="M132.275 86.2249C133.865 87.8149 135.455 89.6699 136.515 91.5249C137.84 89.6699 139.165 87.8149 140.755 86.2249L164.605 62.3749C165.665 61.3149 166.46 60.5199 167.52 59.7249C165.93 44.0899 152.415 31.8999 136.25 31.8999C120.085 31.8999 106.835 43.8249 104.715 59.4599C106.04 60.2549 107.1 61.3149 108.16 62.3749L132.275 86.2249Z" fill="#FFAC00"/>
<path d="M138.9 129.155C138.105 128.095 137.045 127.035 136.515 125.71C135.72 126.77 134.925 128.095 134.13 129.155C134.925 129.155 135.72 129.155 136.25 129.155C137.045 129.42 138.105 129.155 138.9 129.155Z" fill="#FFC300"/>
<path d="M104.45 97.62C104.45 100.005 104.715 102.125 105.245 104.245C117.435 106.895 126.975 116.435 129.625 128.625C130.95 128.89 132.54 129.155 134.13 129.155C134.925 128.095 135.985 127.035 136.515 125.71C129.89 115.375 129.89 101.86 136.515 91.525C135.19 89.67 133.865 87.815 132.275 86.225L108.425 62.375C107.365 61.315 106.04 60.255 104.98 59.46C104.715 60.785 104.45 62.11 104.45 63.7V97.62Z" fill="#FF3400"/>
<path d="M168.05 97.62C168.05 100.005 167.785 102.125 167.255 104.245C169.375 103.715 171.76 103.45 173.88 103.45H207.8C209.39 103.45 210.98 103.715 212.57 103.98C221.845 91.525 221.05 73.77 209.655 62.375C198.26 50.98 180.24 50.185 167.785 59.725C168.05 61.05 168.05 62.375 168.05 63.7V97.62Z" fill="#F0EA0D"/>
<path d="M142.345 132.6C142.345 131.275 142.61 129.95 142.875 128.625C141.55 128.89 140.225 129.155 138.9 129.155C139.43 129.95 140.225 130.48 140.755 131.275C141.285 131.805 141.815 132.07 142.345 132.6Z" fill="#DAE411"/>
<path d="M140.755 86.2251C139.165 87.8151 137.575 89.6701 136.515 91.5251C143.14 101.86 143.14 115.375 136.515 125.71C137.31 126.77 138.105 128.095 138.9 129.155C140.225 129.155 141.55 128.89 142.875 128.625C145.525 116.435 155.065 106.895 167.255 104.245C167.785 102.125 168.05 99.7401 168.05 97.6201V63.7001C168.05 62.3751 168.05 61.0501 167.785 59.7251C166.725 60.5201 165.665 61.3151 164.87 62.3751L140.755 86.2251Z" fill="#EAA200"/>
<path d="M136.515 91.5249C129.89 101.86 129.89 115.375 136.515 125.71C143.14 115.375 143.14 102.125 136.515 91.5249Z" fill="#E63300"/>
<path d="M142.08 135.25C142.08 136.31 142.08 137.37 142.345 138.43C143.67 137.37 144.995 136.31 146.32 135.515C144.995 134.72 143.67 133.66 142.345 132.6C142.345 133.395 142.08 134.455 142.08 135.25Z" fill="#83D567"/>
<path d="M239.6 135.25C239.6 119.35 227.94 106.1 212.57 103.98C211.775 105.305 210.715 106.365 209.655 107.425L185.805 131.275C184.215 132.865 182.36 134.455 180.505 135.515C182.36 136.84 184.215 138.165 185.805 139.755L209.655 163.605C210.715 164.665 211.51 165.46 212.305 166.52C227.675 164.4 239.6 151.415 239.6 135.25Z" fill="#A2DD50"/>
<path d="M173.88 103.45C171.495 103.45 169.375 103.715 167.255 104.245C164.605 116.435 155.065 125.975 142.875 128.625C142.61 129.95 142.345 131.275 142.345 132.6C143.67 133.66 144.995 134.72 146.32 135.515C156.655 128.89 170.17 128.89 180.505 135.515C182.36 134.19 184.215 132.865 185.805 131.275L209.655 107.425C210.715 106.365 211.775 105.04 212.57 103.98C210.98 103.715 209.39 103.45 207.8 103.45H173.88Z" fill="#8BC100"/>
<path d="M167.255 104.245C155.065 106.895 145.525 116.435 142.875 128.625C155.065 125.975 164.605 116.435 167.255 104.245Z" fill="#8D8800"/>
<path d="M173.88 167.05C171.495 167.05 169.375 166.785 167.255 166.255C167.785 168.375 168.05 170.76 168.05 172.88V206.8C168.05 208.39 167.785 209.715 167.785 211.305C180.24 221.11 198.26 220.315 209.92 208.655C221.315 197.26 222.375 179.24 212.57 166.52C210.715 166.785 209.39 167.05 207.8 167.05H173.88Z" fill="#44C899"/>
<path d="M139.43 141.345C140.49 141.345 141.815 141.61 142.875 141.875C142.61 140.815 142.345 139.49 142.345 138.43C141.815 138.96 141.285 139.225 140.755 139.755C140.225 140.285 139.96 140.815 139.43 141.345Z" fill="#4EBFBD"/>
<path d="M185.805 139.755C184.215 138.165 182.36 136.575 180.505 135.515C170.17 142.14 156.655 142.14 146.32 135.515C144.995 136.31 143.67 137.37 142.345 138.43C142.345 139.49 142.61 140.815 142.875 141.875C155.065 144.525 164.605 154.065 167.255 166.255C169.375 166.785 171.76 167.05 173.88 167.05H207.8C209.39 167.05 210.715 166.785 212.305 166.785C211.51 165.725 210.715 164.665 209.655 163.87L185.805 139.755Z" fill="#00A33F"/>
<path d="M146.32 135.515C156.655 142.14 170.17 142.14 180.505 135.515C169.905 128.89 156.655 128.89 146.32 135.515Z" fill="#008D08"/>
<path d="M133.6 141.345C134.66 142.67 135.72 143.995 136.515 145.32C137.31 143.995 138.37 142.67 139.43 141.345C138.37 141.345 137.31 141.08 136.25 141.08C135.455 141.08 134.395 141.345 133.6 141.345Z" fill="#859ED5"/>
<path d="M140.755 184.805C139.165 183.215 137.575 181.36 136.515 179.505C135.19 181.36 133.865 183.215 132.275 184.805L108.425 208.655C107.365 209.715 106.04 210.775 104.98 211.57C107.1 226.94 120.35 238.6 136.25 238.6C152.415 238.6 165.4 226.675 167.785 211.305C166.725 210.51 165.665 209.715 164.87 208.655L140.755 184.805Z" fill="#6EACDF"/>
<path d="M168.05 172.88C168.05 170.495 167.785 168.375 167.255 166.255C155.065 163.605 145.525 154.065 142.875 141.875C141.815 141.61 140.49 141.345 139.43 141.345C138.37 142.67 137.31 143.995 136.515 145.32C143.14 155.655 143.14 169.17 136.515 179.505C137.84 181.36 139.165 183.215 140.755 184.805L164.605 208.655C165.665 209.715 166.46 210.51 167.52 211.305C167.785 209.715 167.785 208.39 167.785 206.8V172.88H168.05Z" fill="#1D7B97"/>
<path d="M167.255 166.255C164.605 154.065 155.065 144.525 142.875 141.875C145.525 154.065 155.065 163.605 167.255 166.255Z" fill="#00683A"/>
<path d="M130.155 137.9C130.155 139.225 129.89 140.55 129.625 141.875C130.95 141.61 132.275 141.345 133.6 141.345C133.07 140.815 132.805 140.285 132.275 139.755C131.48 139.225 130.95 138.695 130.155 137.9Z" fill="#BE85C1"/>
<path d="M104.45 172.88C104.45 170.495 104.715 168.375 105.245 166.255C103.125 166.785 100.74 167.05 98.6199 167.05H64.6999C63.3749 167.05 62.0499 167.05 60.7249 166.785C50.9199 179.24 51.9799 197.26 63.3749 208.655C74.7699 220.05 92.5249 220.845 104.98 211.57C104.715 209.98 104.45 208.39 104.45 206.8V172.88Z" fill="#AB86C4"/>
<path d="M132.275 184.805C133.865 183.215 135.455 181.36 136.515 179.505C129.89 169.17 129.89 155.655 136.515 145.32C135.72 143.995 134.66 142.67 133.6 141.345C132.275 141.345 130.95 141.61 129.625 141.875C126.975 154.065 117.435 163.605 105.245 166.255C104.715 168.375 104.45 170.76 104.45 172.88V206.8C104.45 208.39 104.715 209.98 104.98 211.57C106.305 210.775 107.365 209.715 108.425 208.655L132.275 184.805Z" fill="#5D53A6"/>
<path d="M136.515 179.505C143.14 169.17 143.14 155.655 136.515 145.32C129.89 155.655 129.89 168.905 136.515 179.505Z" fill="#243F76"/>
<path d="M130.155 133.13C129.095 133.925 128.035 134.985 126.71 135.515C127.77 136.31 129.095 137.105 130.155 137.9C130.155 137.105 130.42 136.045 130.42 135.25C130.42 134.455 130.155 133.66 130.155 133.13Z" fill="#F1648A"/>
<path d="M87.2249 139.755C88.8149 138.165 90.6699 136.575 92.5249 135.515C90.6699 134.19 88.8149 132.865 87.2249 131.275L63.3749 107.425C62.3149 106.365 61.2549 105.04 60.4599 103.98C44.8249 105.835 32.8999 119.085 32.8999 135.25C32.8999 151.415 45.0899 164.93 60.7249 166.785C61.5199 165.725 62.3149 164.665 63.3749 163.87L87.2249 139.755Z" fill="#E275A8"/>
<path d="M87.225 131.275C88.815 132.865 90.67 134.455 92.525 135.515C102.86 128.89 116.375 128.89 126.71 135.515C127.77 134.72 129.095 133.925 130.155 133.13C130.155 131.54 129.89 130.215 129.625 128.625C117.435 125.975 107.895 116.435 105.245 104.245C103.125 103.715 100.74 103.45 98.62 103.45H64.7C63.11 103.45 61.785 103.715 60.46 103.715C61.255 105.04 62.315 106.1 63.375 107.16L87.225 131.275Z" fill="#E40017"/>
<path d="M105.245 104.245C107.895 116.435 117.435 125.975 129.625 128.625C126.975 116.435 117.435 106.895 105.245 104.245Z" fill="#E60000"/>
<path d="M98.6201 167.05C101.005 167.05 103.125 166.785 105.245 166.255C107.895 154.065 117.435 144.525 129.625 141.875C129.89 140.55 130.155 139.225 130.155 137.9C129.095 137.105 128.035 136.045 126.71 135.515C116.375 142.14 102.86 142.14 92.5251 135.515C90.6701 136.84 88.8151 138.165 87.2251 139.755L63.3751 163.605C62.3151 164.665 61.5201 165.46 60.7251 166.52C62.0501 167.05 63.3751 167.05 64.7001 167.05H98.6201Z" fill="#9F3174"/>
<path d="M92.5249 135.515C102.86 142.14 116.375 142.14 126.71 135.515C116.375 128.89 103.125 128.89 92.5249 135.515Z" fill="#9F0017"/>
<path d="M105.245 166.255C117.435 163.605 126.975 154.065 129.625 141.875C117.435 144.525 107.895 154.065 105.245 166.255Z" fill="#561E5D"/>
</svg>
