<svg width="36" height="40" viewBox="0 0 36 40" fill="none" xmlns="http://www.w3.org/2000/svg">
<path d="M2.85716 40C3.33334 40 3.78572 39.9174 4.2143 39.7523C4.64287 39.5872 5.09525 39.363 5.57145 39.0798L33.3335 23.1741C34.3334 22.592 35.0278 22.0768 35.4168 21.6284C35.8056 21.18 36 20.6412 36 20.0119C36 19.3825 35.8056 18.8437 35.4168 18.3953C35.0278 17.9469 34.3334 17.4396 33.3335 16.8732L5.57145 0.943968C5.09525 0.676513 4.64287 0.46019 4.2143 0.294998C3.78572 0.129807 3.33334 0.0472107 2.85716 0.0472107C1.98414 0.0472107 1.28969 0.353996 0.773811 0.967568C0.257937 1.58114 0 2.39923 0 3.42186V36.6019C0 37.6244 0.257937 38.4464 0.773811 39.068C1.28969 39.6893 1.98414 40 2.85716 40Z" fill-opacity="0.85"/>
</svg>
