<svg viewBox="0 0 185 185" xmlns="http://www.w3.org/2000/svg">
<g clip-path="url(#clip0_42_13)">
<path
d="M0 92.4442C0 95.2082 0.990403 97.5614 2.97121 99.5037C4.95201 101.446 7.28787 102.417 9.97878 102.417H82.5211V174.915C82.5211 177.605 83.4928 179.939 85.4363 181.919C87.3797 183.899 89.7342 184.889 92.4999 184.889C95.2655 184.889 97.6388 183.899 99.6196 181.919C101.6 179.939 102.591 177.605 102.591 174.915V102.417H175.021C177.712 102.417 180.048 101.446 182.029 99.5037C184.01 97.5614 185 95.2082 185 92.4442C185 89.6802 184.01 87.3084 182.029 85.3288C180.048 83.3492 177.712 82.3594 175.021 82.3594H102.591V9.97278C102.591 7.28349 101.6 4.94903 99.6196 2.96942C97.6388 0.989807 95.2655 0 92.4999 0C89.7342 0 87.3797 0.989807 85.4363 2.96942C83.4928 4.94903 82.5211 7.28349 82.5211 9.97278V82.3594H9.97878C7.28787 82.3594 4.95201 83.3492 2.97121 85.3288C0.990403 87.3084 0 89.6802 0 92.4442Z"
/>
</g>
<defs>
<clipPath id="clip0_42_13">
<rect width="185" height="185" />
</clipPath>
</defs>
</svg>