<svg viewBox="0 0 23 19" fill="none" xmlns="http://www.w3.org/2000/svg">
<g clip-path="url(#clip0_2_3035)">
<path d="M3.84375 18.1797H20.1816C21.054 18.1797 21.7344 17.9274 22.2226 17.4229C22.7109 16.9183 22.955 16.1615 22.955 15.1524V5.12304C22.955 4.12044 22.6979 3.36524 22.1835 2.85742C21.6693 2.34961 20.9043 2.0957 19.8886 2.0957H10.5137C10.1816 2.0957 9.90169 2.05176 9.67382 1.96386C9.44596 1.87598 9.20833 1.72787 8.96093 1.51953L8.36523 1.03125C8.15039 0.848958 7.94368 0.705729 7.74511 0.601563C7.54655 0.497396 7.32845 0.422526 7.09082 0.376953C6.85319 0.33138 6.57487 0.308594 6.25586 0.308594H3.47265C2.61328 0.308594 1.94922 0.552734 1.48047 1.04102C1.01172 1.52929 0.777344 2.26497 0.777344 3.24804V15.1524C0.777344 16.1615 1.03288 16.9183 1.54395 17.4229C2.05501 17.9274 2.82161 18.1797 3.84375 18.1797ZM11.6892 12.0191C11.1873 12.0191 10.9363 11.7712 10.9363 11.2753C10.9363 11.2572 10.9363 11.2375 10.9363 11.2163C10.9363 11.1952 10.9363 11.1755 10.9363 11.1574C10.9363 10.6917 11.0482 10.3198 11.2719 10.0417C11.4957 9.76351 11.7738 9.5065 12.1064 9.27066C12.5176 8.98645 12.823 8.74306 13.0226 8.54048C13.2222 8.3379 13.3219 8.07637 13.3219 7.75587C13.3219 7.39909 13.1934 7.11186 12.9364 6.89416C12.6794 6.67647 12.3393 6.56762 11.9159 6.56762C11.7103 6.56762 11.5199 6.60088 11.3445 6.66739C11.1691 6.73391 11.0089 6.83067 10.8637 6.95765C10.7186 7.08465 10.5886 7.23885 10.4738 7.42026L10.3105 7.64702C10.2258 7.75587 10.1291 7.84506 10.0202 7.9146C9.91138 7.98415 9.77834 8.01892 9.62111 8.01892C9.46389 8.01892 9.31574 7.96299 9.17665 7.85111C9.03757 7.73924 8.96803 7.5805 8.96803 7.3749C8.96803 7.29629 8.97559 7.21768 8.9907 7.13907C9.00582 7.06046 9.02548 6.98487 9.04966 6.9123C9.1827 6.47691 9.50169 6.09897 10.0066 5.77847C10.5115 5.45798 11.1692 5.29773 11.9794 5.29773C12.5116 5.29773 13.003 5.38844 13.4534 5.56985C13.904 5.75126 14.2683 6.01884 14.5464 6.3726C14.8246 6.72636 14.9637 7.16326 14.9637 7.6833C14.9637 8.24568 14.8171 8.69015 14.5238 9.01669C14.2305 9.34323 13.8571 9.65466 13.4035 9.95096C13.077 10.1626 12.8351 10.3637 12.6779 10.5542C12.5207 10.7447 12.442 10.9729 12.442 11.239C12.442 11.2511 12.442 11.2677 12.442 11.2889C12.442 11.31 12.442 11.3297 12.442 11.3478C12.442 11.5353 12.3755 11.694 12.2425 11.8241C12.1095 11.9541 11.925 12.0191 11.6892 12.0191ZM11.662 14.8038C11.396 14.8038 11.1616 14.7101 10.959 14.5226C10.7565 14.3351 10.6552 14.1053 10.6552 13.8332C10.6552 13.5671 10.755 13.3373 10.9545 13.1438C11.1541 12.9503 11.3899 12.8536 11.662 12.8536C11.9402 12.8536 12.179 12.9488 12.3785 13.1393C12.5781 13.3298 12.6779 13.5611 12.6779 13.8332C12.6779 14.1053 12.5766 14.3351 12.374 14.5226C12.1714 14.7101 11.9341 14.8038 11.662 14.8038Z" fill="white" fill-opacity="0.85"/>
</g>
<defs>
<clipPath id="clip0_2_3035">
<rect width="22.1777" height="17.998" fill="black" transform="translate(0.777344 0.308594)"/>
</clipPath>
</defs>
</svg>
