<svg viewBox="0 0 20 21" fill="none" xmlns="http://www.w3.org/2000/svg">
<g clip-path="url(#clip0_108_9)">
<path d="M9.95728 20.08C11.318 20.08 12.5989 19.8196 13.8 19.2988C15.0012 18.7779 16.0608 18.0585 16.9787 17.1406C17.8967 16.2226 18.6161 15.163 19.1369 13.9619C19.6578 12.7607 19.9182 11.4798 19.9182 10.1191C19.9182 8.75843 19.6578 7.47751 19.1369 6.27634C18.6161 5.07516 17.8967 4.01559 16.9787 3.09763C16.0608 2.17966 14.9996 1.46026 13.7951 0.939423C12.5907 0.418589 11.3082 0.158173 9.94751 0.158173C8.58683 0.158173 7.30591 0.418589 6.10474 0.939423C4.90356 1.46026 3.84562 2.17966 2.93091 3.09763C2.01619 4.01559 1.29842 5.07516 0.777588 6.27634C0.256755 7.47751 -0.00366211 8.75843 -0.00366211 10.1191C-0.00366211 11.4798 0.256755 12.7607 0.777588 13.9619C1.29842 15.163 2.01782 16.2226 2.93579 17.1406C3.85376 18.0585 4.91333 18.7779 6.1145 19.2988C7.31567 19.8196 8.5966 20.08 9.95728 20.08Z" fill="#FD6A46" fill-opacity="0.85"/>
<path d="M4.84985 11.6035C4.68058 11.6035 4.53735 11.5449 4.42016 11.4277C4.30298 11.3105 4.24438 11.1673 4.24438 10.998V9.22068C4.24438 9.05791 4.30298 8.91793 4.42016 8.80075C4.53735 8.68356 4.68058 8.62497 4.84985 8.62497C5.01912 8.62497 5.16235 8.68356 5.27953 8.80075C5.39672 8.91793 5.45531 9.05791 5.45531 9.22068V10.998C5.45531 11.1673 5.39672 11.3105 5.27953 11.4277C5.16235 11.5449 5.01912 11.6035 4.84985 11.6035ZM6.89086 14.0254C6.72159 14.0254 6.57836 13.9668 6.46117 13.8496C6.34399 13.7324 6.28539 13.5892 6.28539 13.4199V6.7988C6.28539 6.63604 6.34399 6.49606 6.46117 6.37888C6.57836 6.26169 6.72159 6.2031 6.89086 6.2031C7.06664 6.2031 7.21313 6.26169 7.33031 6.37888C7.44751 6.49606 7.5061 6.63604 7.5061 6.7988V13.4199C7.5061 13.5892 7.44751 13.7324 7.33031 13.8496C7.21313 13.9668 7.06664 14.0254 6.89086 14.0254ZM8.94164 16.7207C8.76586 16.7207 8.62101 16.6621 8.50707 16.5449C8.39314 16.4277 8.33617 16.278 8.33617 16.0957V4.14255C8.33617 3.96025 8.39477 3.81051 8.51195 3.69333C8.62915 3.57614 8.77238 3.51755 8.94164 3.51755C9.11092 3.51755 9.25415 3.57614 9.37133 3.69333C9.48852 3.81051 9.54711 3.96025 9.54711 4.14255V16.0957C9.54711 16.2714 9.48852 16.4195 9.37133 16.54C9.25415 16.6605 9.11092 16.7207 8.94164 16.7207ZM10.9729 13.2246C10.8037 13.2246 10.6621 13.166 10.5481 13.0488C10.4342 12.9316 10.3772 12.7884 10.3772 12.6191V7.60935C10.3772 7.44007 10.4342 7.29684 10.5481 7.17966C10.6621 7.06247 10.8037 7.00388 10.9729 7.00388C11.1487 7.00388 11.2951 7.06247 11.4123 7.17966C11.5295 7.29684 11.5881 7.44007 11.5881 7.60935V12.6191C11.5881 12.7884 11.5295 12.9316 11.4123 13.0488C11.2951 13.166 11.1487 13.2246 10.9729 13.2246ZM13.0236 15.3046C12.8479 15.3046 12.7014 15.246 12.5842 15.1289C12.467 15.0117 12.4084 14.8685 12.4084 14.6992V5.52927C12.4084 5.35999 12.467 5.21676 12.5842 5.09958C12.7014 4.98239 12.8479 4.9238 13.0236 4.9238C13.1929 4.9238 13.3361 4.98239 13.4533 5.09958C13.5705 5.21676 13.6291 5.35999 13.6291 5.52927V14.6992C13.6291 14.8685 13.5705 15.0117 13.4533 15.1289C13.3361 15.246 13.1929 15.3046 13.0236 15.3046ZM15.0744 12.1015C14.8987 12.1015 14.7522 12.0445 14.635 11.9306C14.5178 11.8167 14.4592 11.6751 14.4592 11.5058V8.72263C14.4592 8.55335 14.5178 8.41175 14.635 8.29782C14.7522 8.18389 14.8987 8.12693 15.0744 8.12693C15.2437 8.12693 15.3853 8.18389 15.4992 8.29782C15.6132 8.41175 15.6701 8.55335 15.6701 8.72263V11.5058C15.6701 11.6751 15.6132 11.8167 15.4992 11.9306C15.3853 12.0445 15.2437 12.1015 15.0744 12.1015Z" fill="white"/>
</g>
<defs>
<clipPath id="clip0_108_9">
<rect width="19.9219" height="19.9316" fill="white" transform="translate(-0.00366211 0.148407)"/>
</clipPath>
</defs>
</svg>
